<?xml version="1.0" encoding="utf-8"?>
<!-- Svg Vector Icons : http://www.onlinewebfonts.com/icon -->
<!DOCTYPE svg PUBLIC "-//W3C//DTD SVG 1.1//EN" "http://www.w3.org/Graphics/SVG/1.1/DTD/svg11.dtd">
<svg version="1.1" xmlns="http://www.w3.org/2000/svg" xmlns:xlink="http://www.w3.org/1999/xlink" x="0px" y="0px" viewBox="0 0 1000 1000" enable-background="new 0 0 1000 1000" xml:space="preserve">
<metadata> Svg Vector Icons : http://www.onlinewebfonts.com/icon </metadata>
<g><path d="M989.9,909.7H10v83.1h980L989.9,909.7z M190.2,577.2H72v249.5h118.6L190.2,577.2z M416.7,214.4l-61.9-28.1L94.1,481.5l62.1,28.2L416.7,214.4z M630.5,370l36.1-49L361,170.3l-36.3,49.2L630.5,370z M854.6,91.4l-48.5-18.2L581.3,346.9l48.7,18.3L854.6,91.4z M427.1,411.2H309v415.4h118.6L427.1,411.2z M664.7,493.5H546.5v333.2h118.6L664.7,493.5z M901.6,327.2H783.5v499.4H902L901.6,327.2z M719.4,41.5l185.1,110L902.1,7.2L719.4,41.5z"/></g>
</svg>