<svg id="Layer_1" data-name="Layer 1" xmlns="http://www.w3.org/2000/svg" viewBox="0 0 99.94 96.12"><defs><style>.cls-1{fill:#ff9a01;}.cls-2{fill:#ffce00;}</style></defs><title>mark_on_white</title><path class="cls-1" d="M277.91,327H225v96h52.91C286,423,293,416.5,293,408.42V342.26C293,334.17,286,327,277.91,327Zm-28,63h-5.51a1.33,1.33,0,0,1-1-1.49L246,372l2-13.38a1.89,1.89,0,0,1,1.58-1.67h11.27a10.84,10.84,0,0,1,8.18,3.25,7,7,0,0,1,1.23,1.93,5.89,5.89,0,0,1,.42,2.18,2.18,2.18,0,0,1,.2.56c0,0.39.11,0.8,0.11,1.23v0a7.55,7.55,0,0,1-.33.81c-1.3,6.62-5.6,10-12.77,10h-3.31a3.2,3.2,0,0,0-3,2.77Zm23.91-16.4c-1.29,6.67-5.73,8.4-11.41,8.4h-0.86c-0.7,0-1.29,1.12-1.4,1.8l-0.07.86L259,391.8l-0.06.11a1.32,1.32,0,0,1-1.4,1.1h-5.79l2.21-13.56a0.58,0.58,0,0,1,.64-0.44h3.31c8.14,0,13.25-4.13,14.81-11.64C274.11,369,274.36,370.86,273.83,373.6Z" transform="translate(-193.06 -327)"/><path class="cls-2" d="M16,0.55h7.93a0,0,0,0,1,0,0V96.12a0,0,0,0,1,0,0H16a8,8,0,0,1-8-8V8.55a8,8,0,0,1,8-8Z"/><rect class="cls-2" y="17.26" width="7.96" height="7.96"/><rect class="cls-2" y="73.01" width="7.96" height="7.96"/><rect class="cls-2" y="44.35" width="7.96" height="7.96"/><rect class="cls-2" y="58.68" width="7.96" height="7.96"/><rect class="cls-2" y="30.81" width="7.96" height="7.96"/></svg>